<svg xmlns="http://www.w3.org/2000/svg" width="50" height="50" viewBox="0 0 50 50">
  <path id="facebook-messenger-brands" d="M33.055,8C18.94,8,8,18.317,8,32.252a23.7,23.7,0,0,0,7.87,17.938c.842.757.668,1.2.811,5.87a2.008,2.008,0,0,0,2.81,1.771c5.334-2.349,5.4-2.534,6.306-2.288C41.251,59.8,58,49.907,58,32.252,58,18.317,47.172,8,33.055,8ZM48.1,26.663,40.741,38.314a3.767,3.767,0,0,1-5.434,1l-5.855-4.382a1.512,1.512,0,0,0-1.815,0l-7.9,5.992a1.188,1.188,0,0,1-1.725-1.58l7.359-11.651a3.766,3.766,0,0,1,5.434-1l5.853,4.381a1.512,1.512,0,0,0,1.815,0l7.9-5.986A1.185,1.185,0,0,1,48.1,26.663Z" transform="translate(-8 -8)" fill="#7e0403"/>
</svg>
